{
  "source": "C:\\Users\\Peter\\Desktop\\stuff\\MIUN\\quantitative_research\\video_compression\\videos\\BVI-HD\\BVI-HD_CDVL_videos\\ORIG\\Hamster_1920x1080_60fps.mp4",
  "output": "C:\\Users\\Peter\\Desktop\\stuff\\MIUN\\quantitative_research\\video_compression\\compressed_videos\\BVI-HD\\vp9\\4\\Hamster_1920x1080_60fps_vp9.webm",
  "codec": "vp9",
  "ok": "Input #0, mov,mp4,m4a,3gp,3g2,mj2, from 'C:\\Users\\Peter\\Desktop\\stuff\\MIUN\\quantitative_research\\video_compression\\videos\\BVI-HD\\BVI-HD_CDVL_videos\\ORIG\\Hamster_1920x1080_60fps.mp4':\n  Metadata:\n    major_brand     : isom\n    minor_version   : 512\n    compatible_brands: isomiso2avc1mp41\n    encoder         : Lavf54.28.101\n  Duration: 00:00:05.00, start: 0.000000, bitrate: 208485 kb/s\n  Stream #0:0[0x1](und): Video: h264 (High 4:4:4 Predictive) (avc1 / 0x31637661), yuv420p(progressive), 1920x1080, 208481 kb/s, 60 fps, 60 tbr, 60 tbn (default)\n    Metadata:\n      handler_name    : VideoHandler\n      vendor_id       : [0][0][0][0]\n[out#0/webm @ 00000196bb6d9780] Codec AVOption b:a (set bitrate (in bits/s)) has not been used for any stream. The most likely reason is either wrong type (e.g. a video option with no video streams) or that it is a private option of some decoder which was not actually used for any stream.\nStream mapping:\n  Stream #0:0 -> #0:0 (h264 (native) -> vp9 (libvpx-vp9))\nPress [q] to stop, [?] for help\n[libvpx-vp9 @ 00000196bbe5a040] v1.15.2-100-g40561f514\nOutput #0, webm, to 'C:\\Users\\Peter\\Desktop\\stuff\\MIUN\\quantitative_research\\video_compression\\compressed_videos\\BVI-HD\\vp9\\4\\Hamster_1920x1080_60fps_vp9.webm':\n  Metadata:\n    major_brand     : isom\n    minor_version   : 512\n    compatible_brands: isomiso2avc1mp41\n    encoder         : Lavf62.3.100\n  Stream #0:0(und): Video: vp9, yuv420p(tv, progressive), 1920x1080, q=2-31, 4000 kb/s, 60 fps, 1k tbn (default)\n    Metadata:\n      encoder         : Lavc62.11.100 libvpx-vp9\n      handler_name    : VideoHandler\n      vendor_id       : [0][0][0][0]\n    Side data:\n      cpb: bitrate max/min/avg: 0/0/0 buffer size: 4000000 vbv_delay: N/A\nframe=    0 fps=0.0 q=0.0 size=       0KiB time=N/A bitrate=N/A speed=N/A elapsed=0:00:00.52    \nframe=    6 fps=5.2 q=39.0 size=       1KiB time=00:00:00.10 bitrate=  50.6kbits/s speed=0.087x elapsed=0:00:01.14    \nframe=   11 fps=6.4 q=41.0 size=       1KiB time=00:00:00.18 bitrate=  27.6kbits/s speed=0.107x elapsed=0:00:01.70    \nframe=   16 fps=7.2 q=40.0 size=       1KiB time=00:00:00.26 bitrate=  19.0kbits/s speed=0.12x elapsed=0:00:02.22    \nframe=   22 fps=8.0 q=40.0 size=       1KiB time=00:00:00.36 bitrate=  13.8kbits/s speed=0.133x elapsed=0:00:02.74    \nframe=   26 fps=7.9 q=40.0 size=       1KiB time=00:00:00.43 bitrate=  11.7kbits/s speed=0.131x elapsed=0:00:03.29    \nframe=   30 fps=7.7 q=41.0 size=       1KiB time=00:00:00.50 bitrate=  10.1kbits/s speed=0.129x elapsed=0:00:03.87    \nframe=   35 fps=7.9 q=42.0 size=       1KiB time=00:00:00.58 bitrate=   8.7kbits/s speed=0.132x elapsed=0:00:04.41    \nframe=   39 fps=7.9 q=39.0 size=       1KiB time=00:00:00.65 bitrate=   7.8kbits/s speed=0.131x elapsed=0:00:04.96    \nframe=   44 fps=8.0 q=39.0 size=       1KiB time=00:00:00.73 bitrate=   6.9kbits/s speed=0.134x elapsed=0:00:05.48    \nframe=   48 fps=8.0 q=39.0 size=       1KiB time=00:00:00.80 bitrate=   6.3kbits/s speed=0.133x elapsed=0:00:06.03    \nframe=   52 fps=7.9 q=37.0 size=       1KiB time=00:00:00.86 bitrate=   5.8kbits/s speed=0.132x elapsed=0:00:06.57    \nframe=   56 fps=7.9 q=37.0 size=       1KiB time=00:00:00.93 bitrate=   5.4kbits/s speed=0.131x elapsed=0:00:07.10    \nframe=   60 fps=7.9 q=37.0 size=       1KiB time=00:00:01.00 bitrate=   5.1kbits/s speed=0.131x elapsed=0:00:07.63    \nframe=   64 fps=7.8 q=35.0 size=       1KiB time=00:00:01.06 bitrate=   4.7kbits/s speed=0.13x elapsed=0:00:08.21    \nframe=   69 fps=7.9 q=39.0 size=       1KiB time=00:00:01.15 bitrate=   4.4kbits/s speed=0.132x elapsed=0:00:08.74    \nframe=   73 fps=7.9 q=23.0 size=       1KiB time=00:00:01.21 bitrate=   4.2kbits/s speed=0.131x elapsed=0:00:09.28    \nframe=   77 fps=7.8 q=41.0 size=       1KiB time=00:00:01.28 bitrate=   3.9kbits/s speed=0.131x elapsed=0:00:09.81    \nframe=   81 fps=7.8 q=43.0 size=       1KiB time=00:00:01.35 bitrate=   3.8kbits/s speed=0.13x elapsed=0:00:10.35    \nframe=   84 fps=7.7 q=43.0 size=       1KiB time=00:00:01.40 bitrate=   3.6kbits/s speed=0.128x elapsed=0:00:10.90    \nframe=   89 fps=7.8 q=43.0 size=       1KiB time=00:00:01.46 bitrate=   3.5kbits/s speed=0.128x elapsed=0:00:11.43    \nframe=   92 fps=7.7 q=43.0 size=       1KiB time=00:00:01.53 bitrate=   3.3kbits/s speed=0.128x elapsed=0:00:12.00    \nframe=   95 fps=7.6 q=43.0 size=       1KiB time=00:00:01.58 bitrate=   3.2kbits/s speed=0.126x elapsed=0:00:12.57    \nframe=   97 fps=7.4 q=30.0 size=       1KiB time=00:00:01.61 bitrate=   3.1kbits/s speed=0.123x elapsed=0:00:13.17    \nframe=  100 fps=7.3 q=46.0 size=       1KiB time=00:00:01.66 bitrate=   3.0kbits/s speed=0.121x elapsed=0:00:13.75    \nframe=  102 fps=7.1 q=46.0 size=       1KiB time=00:00:01.70 bitrate=   3.0kbits/s speed=0.118x elapsed=0:00:14.36    \nframe=  106 fps=7.1 q=46.0 size=       1KiB time=00:00:01.76 bitrate=   2.9kbits/s speed=0.119x elapsed=0:00:14.89    \nframe=  110 fps=7.1 q=46.0 size=       1KiB time=00:00:01.83 bitrate=   2.8kbits/s speed=0.119x elapsed=0:00:15.46    \nframe=  114 fps=7.1 q=45.0 size=       1KiB time=00:00:01.90 bitrate=   2.7kbits/s speed=0.119x elapsed=0:00:15.98    \nframe=  118 fps=7.1 q=45.0 size=       1KiB time=00:00:01.96 bitrate=   2.6kbits/s speed=0.119x elapsed=0:00:16.53    \nframe=  122 fps=7.1 q=43.0 size=       1KiB time=00:00:02.03 bitrate=   2.5kbits/s speed=0.119x elapsed=0:00:17.06    \nframe=  126 fps=7.2 q=42.0 size=       1KiB time=00:00:02.10 bitrate=   2.4kbits/s speed=0.119x elapsed=0:00:17.60    \nframe=  129 fps=7.1 q=32.0 size=       1KiB time=00:00:02.15 bitrate=   2.4kbits/s speed=0.119x elapsed=0:00:18.13    \nframe=  133 fps=7.1 q=43.0 size=     768KiB time=00:00:02.21 bitrate=2838.3kbits/s speed=0.119x elapsed=0:00:18.67    \nframe=  136 fps=7.1 q=42.0 size=     768KiB time=00:00:02.26 bitrate=2775.6kbits/s speed=0.118x elapsed=0:00:19.23    \nframe=  140 fps=7.1 q=41.0 size=     768KiB time=00:00:02.33 bitrate=2696.3kbits/s speed=0.118x elapsed=0:00:19.79    \nframe=  144 fps=7.1 q=40.0 size=     768KiB time=00:00:02.40 bitrate=2621.4kbits/s speed=0.118x elapsed=0:00:20.33    \nframe=  147 fps=7.0 q=42.0 size=     768KiB time=00:00:02.45 bitrate=2567.9kbits/s speed=0.117x elapsed=0:00:20.88    \nframe=  151 fps=7.1 q=41.0 size=     768KiB time=00:00:02.51 bitrate=2499.9kbits/s speed=0.118x elapsed=0:00:21.41    \nframe=  154 fps=7.0 q=41.0 size=     768KiB time=00:00:02.56 bitrate=2451.2kbits/s speed=0.117x elapsed=0:00:21.92    \nframe=  157 fps=7.0 q=41.0 size=     768KiB time=00:00:02.61 bitrate=2404.4kbits/s speed=0.117x elapsed=0:00:22.44    \nframe=  161 fps=7.0 q=41.0 size=     768KiB time=00:00:02.68 bitrate=2344.6kbits/s speed=0.117x elapsed=0:00:22.98    \nframe=  165 fps=7.0 q=42.0 size=     768KiB time=00:00:02.73 bitrate=2301.8kbits/s speed=0.116x elapsed=0:00:23.54    \nframe=  169 fps=7.0 q=42.0 size=     768KiB time=00:00:02.81 bitrate=2233.7kbits/s speed=0.117x elapsed=0:00:24.08    \nframe=  173 fps=7.0 q=41.0 size=     768KiB time=00:00:02.88 bitrate=2182.0kbits/s speed=0.117x elapsed=0:00:24.61    \nframe=  177 fps=7.0 q=42.0 size=     768KiB time=00:00:02.95 bitrate=2132.7kbits/s speed=0.117x elapsed=0:00:25.18    \nframe=  179 fps=6.9 q=42.0 size=     768KiB time=00:00:02.98 bitrate=2108.9kbits/s speed=0.116x elapsed=0:00:25.75    \nframe=  182 fps=6.9 q=30.0 size=     768KiB time=00:00:03.03 bitrate=2074.1kbits/s speed=0.115x elapsed=0:00:26.28    \nframe=  186 fps=6.9 q=43.0 size=     768KiB time=00:00:03.08 bitrate=2040.5kbits/s speed=0.115x elapsed=0:00:26.79    \nframe=  189 fps=6.9 q=43.0 size=     768KiB time=00:00:03.15 bitrate=1997.3kbits/s speed=0.115x elapsed=0:00:27.37    \nframe=  194 fps=7.0 q=30.0 size=     768KiB time=00:00:03.21 bitrate=1955.9kbits/s speed=0.115x elapsed=0:00:27.89    \nframe=  198 fps=7.0 q=42.0 size=     768KiB time=00:00:03.30 bitrate=1906.5kbits/s speed=0.116x elapsed=0:00:28.43    \nframe=  201 fps=6.9 q=39.0 size=     768KiB time=00:00:03.35 bitrate=1878.0kbits/s speed=0.116x elapsed=0:00:28.96    \nframe=  205 fps=6.9 q=42.0 size=     768KiB time=00:00:03.41 bitrate=1841.4kbits/s speed=0.116x elapsed=0:00:29.53    \nframe=  207 fps=6.9 q=43.0 size=     768KiB time=00:00:03.45 bitrate=1823.6kbits/s speed=0.114x elapsed=0:00:30.18    \nframe=  209 fps=6.8 q=43.0 size=     768KiB time=00:00:03.48 bitrate=1806.2kbits/s speed=0.113x elapsed=0:00:30.77    \nframe=  211 fps=6.7 q=44.0 size=     768KiB time=00:00:03.51 bitrate=1789.0kbits/s speed=0.112x elapsed=0:00:31.39    \nframe=  214 fps=6.7 q=48.0 size=     768KiB time=00:00:03.55 bitrate=1772.2kbits/s speed=0.111x elapsed=0:00:32.02    \nframe=  216 fps=6.6 q=49.0 size=     768KiB time=00:00:03.60 bitrate=1747.6kbits/s speed=0.11x elapsed=0:00:32.65    \nframe=  219 fps=6.6 q=47.0 size=     768KiB time=00:00:03.63 bitrate=1731.6kbits/s speed=0.109x elapsed=0:00:33.26    \nframe=  221 fps=6.5 q=47.0 size=     768KiB time=00:00:03.68 bitrate=1708.1kbits/s speed=0.109x elapsed=0:00:33.84    \nframe=  223 fps=6.5 q=47.0 size=     768KiB time=00:00:03.71 bitrate=1692.8kbits/s speed=0.108x elapsed=0:00:34.43    \nframe=  226 fps=6.5 q=48.0 size=     768KiB time=00:00:03.76 bitrate=1670.3kbits/s speed=0.108x elapsed=0:00:34.98    \nframe=  228 fps=6.4 q=49.0 size=     768KiB time=00:00:03.80 bitrate=1655.6kbits/s speed=0.107x elapsed=0:00:35.58    \nframe=  231 fps=6.4 q=52.0 size=     768KiB time=00:00:03.83 bitrate=1641.2kbits/s speed=0.106x elapsed=0:00:36.21    \nframe=  233 fps=6.3 q=53.0 size=     768KiB time=00:00:03.88 bitrate=1620.1kbits/s speed=0.105x elapsed=0:00:36.89    \nframe=  235 fps=6.3 q=52.0 size=     768KiB time=00:00:03.91 bitrate=1606.3kbits/s speed=0.104x elapsed=0:00:37.53    \nframe=  238 fps=6.2 q=51.0 size=     768KiB time=00:00:03.96 bitrate=1586.1kbits/s speed=0.104x elapsed=0:00:38.13    \nframe=  241 fps=6.2 q=51.0 size=     768KiB time=00:00:04.00 bitrate=1572.9kbits/s speed=0.103x elapsed=0:00:38.68    \nframe=  245 fps=6.2 q=50.0 size=     768KiB time=00:00:04.08 bitrate=1540.8kbits/s speed=0.104x elapsed=0:00:39.28    \nframe=  248 fps=6.2 q=36.0 size=     768KiB time=00:00:04.13 bitrate=1522.1kbits/s speed=0.104x elapsed=0:00:39.84    \nframe=  252 fps=6.2 q=46.0 size=     768KiB time=00:00:04.20 bitrate=1498.0kbits/s speed=0.104x elapsed=0:00:40.41    \nframe=  256 fps=6.3 q=44.0 size=     768KiB time=00:00:04.26 bitrate=1474.6kbits/s speed=0.104x elapsed=0:00:40.95    \nframe=  260 fps=6.3 q=45.0 size=    1792KiB time=00:00:04.33 bitrate=3387.7kbits/s speed=0.104x elapsed=0:00:41.52    \nframe=  264 fps=6.3 q=44.0 size=    1792KiB time=00:00:04.40 bitrate=3336.4kbits/s speed=0.105x elapsed=0:00:42.08    \nframe=  269 fps=6.3 q=43.0 size=    1792KiB time=00:00:04.46 bitrate=3286.6kbits/s speed=0.105x elapsed=0:00:42.63    \nframe=  273 fps=6.3 q=42.0 size=    1792KiB time=00:00:04.55 bitrate=3226.4kbits/s speed=0.105x elapsed=0:00:43.17    \nframe=  276 fps=6.3 q=41.0 size=    1792KiB time=00:00:04.60 bitrate=3191.3kbits/s speed=0.105x elapsed=0:00:43.69    \nframe=  276 fps=6.2 q=41.0 size=    1792KiB time=00:00:04.60 bitrate=3191.3kbits/s speed=0.104x elapsed=0:00:44.23    \nframe=  276 fps=6.2 q=41.0 size=    1792KiB time=00:00:04.60 bitrate=3191.3kbits/s speed=0.103x elapsed=0:00:44.75    \nframe=  276 fps=6.1 q=41.0 size=    1792KiB time=00:00:04.60 bitrate=3191.3kbits/s speed=0.102x elapsed=0:00:45.29    \nframe=  276 fps=6.0 q=41.0 size=    1792KiB time=00:00:04.60 bitrate=3191.3kbits/s speed= 0.1x elapsed=0:00:45.83    \n[out#0/webm @ 00000196bb6d9780] video:2142KiB audio:0KiB subtitle:0KiB other streams:0KiB global headers:0KiB muxing overhead: 0.130118%\nframe=  300 fps=6.5 q=35.0 Lsize=    2145KiB time=00:00:05.00 bitrate=3514.0kbits/s speed=0.108x elapsed=0:00:46.13    \n",
  "seconds": 46.5961799621582,
  "probe_out": {}
}